<svg width="20" height="20" viewBox="0 0 20 20" fill="none" xmlns="http://www.w3.org/2000/svg">
<path d="M3.33333 8.35348H7.66667C7.851 8.35348 8 8.20672 8 8.02589C8 7.84507 7.851 7.69831 7.66667 7.69831H3.33333C3.149 7.69831 3 7.84507 3 8.02589C3 8.20672 3.149 8.35348 3.33333 8.35348Z" fill="white"/>
<path d="M12 9.66382H3.33333C3.149 9.66382 3 9.81058 3 9.99141C3 10.1722 3.149 10.319 3.33333 10.319H12C12.1843 10.319 12.3333 10.1722 12.3333 9.99141C12.3333 9.81058 12.1843 9.66382 12 9.66382Z" fill="white"/>
<path d="M12 11.6293H3.33333C3.149 11.6293 3 11.7761 3 11.9569C3 12.1378 3.149 12.2845 3.33333 12.2845H12C12.1843 12.2845 12.3333 12.1378 12.3333 11.9569C12.3333 11.7761 12.1843 11.6293 12 11.6293Z" fill="white"/>
<path d="M18.024 0.690822L6.64333 0.666672C5.55333 0.666672 4.66667 1.5844 4.66667 2.71258V4.4804L1.97667 4.48627C0.886667 4.48627 0 5.40399 0 6.53217V13.826C0 14.9542 0.886667 15.8716 1.97667 15.8716H4V19.3217C4 19.4641 4.08467 19.5921 4.21333 19.6436C4.25233 19.6591 4.293 19.6667 4.33333 19.6667C4.42533 19.6667 4.51567 19.627 4.58 19.5539L7.81467 15.8709L13.3567 15.8474C14.4467 15.8474 15.3333 14.9297 15.3333 13.8019V13.7629L17.0867 15.7591C17.151 15.8322 17.2413 15.8719 17.3333 15.8719C17.3737 15.8719 17.4143 15.8643 17.4533 15.8488C17.582 15.7974 17.6667 15.6694 17.6667 15.5269V12.0768H18.0233C19.1133 12.0768 20 11.1591 20 10.0313V2.73673C20 1.60889 19.1137 0.691167 18.024 0.690822ZM14.6667 13.8015C14.6667 14.5491 14.079 15.1571 13.3553 15.1571L7.66533 15.1812C7.572 15.1816 7.48267 15.2226 7.42 15.294L4.66667 18.4291V15.5262C4.66667 15.3358 4.51767 15.1812 4.33333 15.1812H1.97667C1.25433 15.1812 0.666667 14.573 0.666667 13.8257V6.53183C0.666667 5.78419 1.25433 5.17594 1.97733 5.17594L5 5.16939H5.00067L13.3567 5.15145C14.079 5.15145 14.6667 5.7597 14.6667 6.50733V13.8015ZM19.3333 10.0306C19.3333 10.7782 18.7457 11.3861 18.0233 11.3861H17.3333C17.149 11.3861 17 11.5407 17 11.7311V14.634L15.3333 12.7365V6.50768C15.3333 5.3795 14.4467 4.46177 13.356 4.46177L5.33333 4.47868V2.71223C5.33333 1.9646 5.921 1.35635 6.64267 1.35635L18.023 1.3805H18.0237C18.746 1.3805 19.3337 1.98875 19.3337 2.73638L19.3333 10.0306Z" fill="white"/>
</svg>
