<svg width="20" height="20" viewBox="0 0 20 20" fill="none" xmlns="http://www.w3.org/2000/svg">
<path d="M10.5825 12.0039C11.6103 11.1839 12.5756 10.2868 13.4514 9.33758C13.6432 9.12975 13.6591 8.8145 13.4893 8.58837L12.9449 7.86358L14.2266 8.01967C14.4306 8.0447 14.6328 7.96047 14.7591 7.79857C16.3985 5.69881 17.602 3.45592 18.3361 1.13201C18.3851 0.976979 18.3675 0.808522 18.2874 0.66692C18.2073 0.525471 18.072 0.423543 17.9137 0.385701C16.4504 0.0355116 14.9453 -0.0767932 13.4406 0.0518384C11.9573 0.178486 10.5092 0.536 9.13672 1.11431C6.28256 2.31716 3.95331 4.37435 2.40057 7.06356C1.59353 8.46157 1.03598 9.96776 0.743314 11.5406C0.460569 13.0607 0.430356 14.6107 0.653593 16.1474C0.667631 16.2437 0.705625 16.3334 0.762083 16.4102C0.44943 17.3608 0.198423 18.3256 0.0107397 19.3005C-0.0504481 19.6183 0.157529 19.9255 0.47537 19.9867C0.512754 19.9939 0.549985 19.9972 0.586759 19.9972C0.862028 19.9972 1.10754 19.8024 1.16156 19.5221C1.35733 18.5049 1.63366 17.4818 1.98248 16.472C5.00113 15.6309 7.9621 14.094 10.5825 12.0039ZM14.0366 6.81606L11.7209 6.53423C11.4881 6.50585 11.2603 6.61953 11.1428 6.82277C11.0253 7.02617 11.0407 7.28008 11.1817 7.46792L12.2559 8.89782C11.511 9.67266 10.7041 10.4078 9.85159 11.0878C7.59848 12.8851 5.0849 14.252 2.50937 15.0891C2.90121 14.1499 3.3547 13.2306 3.86465 12.3474C6.91961 7.05608 11.6764 3.34209 16.6373 2.35653C15.99 3.89354 15.1198 5.38738 14.0366 6.81606ZM3.41543 7.6495C5.7543 3.59859 10.1223 1.17595 14.6744 1.17595C15.1647 1.17595 15.6573 1.20418 16.1497 1.2614C13.6928 1.79699 11.225 2.97908 8.97757 4.70257C6.56805 6.5504 4.44906 8.99135 2.84979 11.7614C2.41629 12.5122 2.0249 13.2772 1.67624 14.0542C1.68234 11.8148 2.27148 9.631 3.41543 7.6495Z" fill="white"/>
<path d="M19.4141 18.8281H16.7969C16.4732 18.8281 16.2109 19.0906 16.2109 19.4141C16.2109 19.7377 16.4732 20 16.7969 20H19.4141C19.7377 20 20 19.7377 20 19.4141C20 19.0906 19.7377 18.8281 19.4141 18.8281Z" fill="white"/>
<path d="M14.4531 18.8281H2.92983C2.60635 18.8281 2.34389 19.0906 2.34389 19.4141C2.34389 19.7377 2.60635 20 2.92983 20H14.4531C14.7768 20 15.0391 19.7377 15.0391 19.4141C15.0391 19.0906 14.7768 18.8281 14.4531 18.8281Z" fill="white"/>
</svg>
