<svg width="33" height="20" viewBox="0 0 33 20" fill="none" xmlns="http://www.w3.org/2000/svg">
<path d="M30.0169 12.9289C28.9075 11.8398 27.5871 11.0335 26.1464 10.5454C27.6894 9.50199 28.7031 7.75578 28.7031 5.78125C28.7031 2.59348 26.0616 0 22.8148 0C19.568 0 16.9265 2.59348 16.9265 5.78125C16.9265 7.75578 17.9402 9.50199 19.4832 10.5454C18.0426 11.0335 16.7222 11.8398 15.6128 12.9289C13.6891 14.8177 12.6296 17.3289 12.6296 20H14.2211C14.2211 15.3475 18.0762 11.5625 22.8148 11.5625C27.5534 11.5625 31.4086 15.3475 31.4086 20H33C33 17.3289 31.9405 14.8177 30.0169 12.9289ZM22.8148 10C20.4455 10 18.5179 8.1075 18.5179 5.78125C18.5179 3.455 20.4455 1.5625 22.8148 1.5625C25.1841 1.5625 27.1117 3.455 27.1117 5.78125C27.1117 8.1075 25.1841 10 22.8148 10Z" fill="white"/>
<path d="M17.3872 12.9289C16.2779 11.8398 14.9575 11.0335 13.5168 10.5454C15.0598 9.50199 16.0735 7.75578 16.0735 5.78125C16.0735 2.59348 13.432 0 10.1852 0C6.93838 0 4.29687 2.59348 4.29687 5.78125C4.29687 7.75578 5.31058 9.50199 6.85359 10.5454C5.41295 11.0335 4.09253 11.8398 2.98319 12.9289C1.05946 14.8177 0 17.3289 0 20H1.59144C1.59144 15.3475 5.44657 11.5625 10.1852 11.5625C14.9238 11.5625 18.7789 15.3475 18.7789 20H20.3704C20.3704 17.3289 19.3109 14.8177 17.3872 12.9289ZM10.1852 10C7.8159 10 5.88831 8.1075 5.88831 5.78125C5.88831 3.455 7.8159 1.5625 10.1852 1.5625C12.5545 1.5625 14.4821 3.455 14.4821 5.78125C14.4821 8.1075 12.5545 10 10.1852 10Z" fill="white"/>
</svg>
